<svg width="96" height="89" viewBox="0 0 96 89" fill="none" xmlns="http://www.w3.org/2000/svg">
<path d="M90 1L54 28L60.6573 12.0704L90 1Z" fill="#E2761B" stroke="#E2761B" stroke-linecap="round" stroke-linejoin="round"/>
<path d="M6.20715 1.18201L42.6322 28.339L36.1738 12.2123L6.20715 1.18201Z" fill="#E4761B" stroke="#E4761B" stroke-linecap="round" stroke-linejoin="round"/>
<path d="M77.7655 63.5413L67.9857 78.3211L88.9107 84L94.9262 63.8689L77.7655 63.5413Z" fill="#E4761B" stroke="#E4761B" stroke-linecap="round" stroke-linejoin="round"/>
<path d="M2.33215 63.8689L8.31072 84L29.2357 78.3211L19.456 63.5413L2.33215 63.8689Z" fill="#E4761B" stroke="#E4761B" stroke-linecap="round" stroke-linejoin="round"/>
<path d="M28.0547 38.5684L22.2238 47.2688L43.0011 48.1789L42.263 26.1548L28.0547 38.5684Z" fill="#E4761B" stroke="#E4761B" stroke-linecap="round" stroke-linejoin="round"/>
<path d="M69.1297 38.5684L54.7368 25.9L54.2571 48.179L74.9976 47.2689L69.1297 38.5684Z" fill="#E4761B" stroke="#E4761B" stroke-linecap="round" stroke-linejoin="round"/>
<path d="M29.2357 78.3211L41.7095 72.3145L30.9333 64.0145L29.2357 78.3211Z" fill="#E4761B" stroke="#E4761B" stroke-linecap="round" stroke-linejoin="round"/>
<path d="M55.475 72.3145L67.9857 78.3211L66.2512 64.0145L55.475 72.3145Z" fill="#E4761B" stroke="#E4761B" stroke-linecap="round" stroke-linejoin="round"/>
<path d="M67.9264 79.3273L55.4537 73.3273L56.4471 81.3636L56.3368 84.7455L67.9264 79.3273Z" fill="#D7C1B3" stroke="#D7C1B3" stroke-linecap="round" stroke-linejoin="round"/>
<path d="M29.2943 79.3273L40.8839 84.7455L40.8103 81.3636L41.7302 73.3273L29.2943 79.3273Z" fill="#D7C1B3" stroke="#D7C1B3" stroke-linecap="round" stroke-linejoin="round"/>
<path d="M40 60L30 56.6609L37.0567 53L40 60Z" fill="#233447" stroke="#233447" stroke-linecap="round" stroke-linejoin="round"/>
<path d="M56 60L58.9329 53L66 56.6609L56 60Z" fill="#233447" stroke="#233447" stroke-linecap="round" stroke-linejoin="round"/>
<path d="M28.776 78.7837L30.527 64.1488L19.1094 64.4732L28.776 78.7837Z" fill="#CD6116" stroke="#CD6116" stroke-linecap="round" stroke-linejoin="round"/>
<path d="M65.327 64.1488L67.078 78.7837L76.7446 64.4732L65.327 64.1488Z" fill="#CD6116" stroke="#CD6116" stroke-linecap="round" stroke-linejoin="round"/>
<path d="M74.0088 48.036L53.5082 48.9372L55.405 59.3546L58.4327 53.0825L65.7283 56.3628L74.0088 48.036Z" fill="#CD6116" stroke="#CD6116" stroke-linecap="round" stroke-linejoin="round"/>
<path d="M30.1623 56.3628L37.4579 53.0825L40.4491 59.3546L42.3824 48.9372L21.8453 48.036L30.1623 56.3628Z" fill="#CD6116" stroke="#CD6116" stroke-linecap="round" stroke-linejoin="round"/>
<path d="M22.2944 48.0364L30.9805 64.7636L30.6861 56.4364L22.2944 48.0364Z" fill="#E4751F" stroke="#E4751F" stroke-linecap="round" stroke-linejoin="round"/>
<path d="M66.5715 56.4364L66.2035 64.7636L74.9264 48.0364L66.5715 56.4364Z" fill="#E4751F" stroke="#E4751F" stroke-linecap="round" stroke-linejoin="round"/>
<path d="M43.016 48.9454L41.0653 59.4545L43.4945 71.8545L44.0466 55.5273L43.016 48.9454Z" fill="#E4751F" stroke="#E4751F" stroke-linecap="round" stroke-linejoin="round"/>
<path d="M54.2417 48.9454L53.2479 55.4909L53.6896 71.8545L56.1556 59.4545L54.2417 48.9454Z" fill="#E4751F" stroke="#E4751F" stroke-linecap="round" stroke-linejoin="round"/>
<path d="M55.4886 59.0875L53 71.7724L54.7829 73L65.6286 64.5186L66 56L55.4886 59.0875Z" fill="#F6851B" stroke="#F6851B" stroke-linecap="round" stroke-linejoin="round"/>
<path d="M30 56L30.2989 64.5186L41.2069 73L43 71.7724L40.5345 59.0875L30 56Z" fill="#F6851B" stroke="#F6851B" stroke-linecap="round" stroke-linejoin="round"/>
<path d="M56.3 84.4735L56.4114 81.0571L55.4829 80.249H41.48L40.6257 81.0571L40.7 84.4735L29 79L33.0857 82.3061L41.3686 88H55.5943L63.9143 82.3061L68 79L56.3 84.4735Z" fill="#C0AD9E" stroke="#C0AD9E" stroke-linecap="round" stroke-linejoin="round"/>
<path d="M55.0471 73.2992L53.3529 72H43.5765L41.8824 73.2992L41 82L41.8118 81.1339H55.1176L56 82L55.0471 73.2992Z" fill="#161616" stroke="#161616" stroke-linecap="round" stroke-linejoin="round"/>
<path d="M91.8054 30.284L94.9265 15.1983L90.2633 1.18481L54.9398 27.5848L68.5258 39.1579L87.7297 44.8151L91.989 39.8235L90.1531 38.4924L93.0906 35.7932L90.814 34.0184L93.7515 31.763L91.8054 30.284Z" fill="#763D16" stroke="#763D16" stroke-linecap="round" stroke-linejoin="round"/>
<path d="M1.2937 15.1983L4.41479 30.284L2.43198 31.763L5.36948 34.0184L3.12964 35.7932L6.06714 38.4924L4.2312 39.8235L8.45386 44.8151L27.6578 39.1579L41.2437 27.5848L5.92026 1.18481L1.2937 15.1983Z" fill="#763D16" stroke="#763D16" stroke-linecap="round" stroke-linejoin="round"/>
<path d="M87.6577 44.691L68.8108 39L74.5405 47.8898L66 65L77.2432 64.8512H94L87.6577 44.691Z" fill="#F6851B" stroke="#F6851B" stroke-linecap="round" stroke-linejoin="round"/>
<path d="M27.1819 39L8.28645 44.691L2 64.8512H18.7639L30 65L21.4735 47.8898L27.1819 39Z" fill="#F6851B" stroke="#F6851B" stroke-linecap="round" stroke-linejoin="round"/>
<path d="M54.1481 49.0272L55.3704 27.987L61 13H36L41.5556 27.987L42.8519 49.0272L43.2963 55.6638L43.3333 72H53.5926L53.6667 55.6638L54.1481 49.0272Z" fill="#F6851B" stroke="#F6851B" stroke-linecap="round" stroke-linejoin="round"/>
</svg>
