<svg width="111" height="68" viewBox="0 0 111 68" fill="none" xmlns="http://www.w3.org/2000/svg">
<path fill-rule="evenodd" clip-rule="evenodd" d="M87.9808 13.286C70.0422 -4.42867 40.9579 -4.42867 23.0193 13.286L20.6496 15.6261C19.7527 16.5118 19.7527 17.9479 20.6496 18.8336L28.035 26.1267C28.4834 26.5696 29.2105 26.5696 29.659 26.1267L32.8407 22.9848C45.3551 10.6266 65.645 10.6266 78.1595 22.9848L81.1304 25.9186C81.5789 26.3615 82.306 26.3615 82.7545 25.9186L90.1398 18.6255C91.0367 17.7398 91.0367 16.3037 90.1398 15.418L87.9808 13.286ZM109.827 34.8599L103.254 28.3689C102.357 27.4832 100.903 27.4832 100.006 28.3689L78.9712 49.1414C78.747 49.3629 78.3834 49.3629 78.1592 49.1414L57.1237 28.3685L57.1237 28.3685C56.2267 27.4828 54.7725 27.4828 53.8756 28.3686L32.8412 49.1414C32.617 49.3629 32.2534 49.3629 32.0292 49.1414L10.9937 28.3686C10.0968 27.4828 8.64259 27.4828 7.74566 28.3686L1.1727 34.8595C0.275767 35.7452 0.275767 37.1813 1.1727 38.067L30.8114 67.3357C31.7083 68.2214 33.1626 68.2214 34.0595 67.3357L55.0942 46.5631C55.3184 46.3417 55.682 46.3417 55.9062 46.5631L76.9414 67.3357C77.8383 68.2214 79.2925 68.2214 80.1894 67.3357L109.827 38.0674C110.724 37.1816 110.724 35.7456 109.827 34.8599Z" fill="#4296FF"/>
</svg>
